<svg xmlns="http://www.w3.org/2000/svg" 
xmlns:xlink="http://www.w3.org/1999/xlink" 
version="1.1" x="0px" y="0px" viewBox="0 0 100 125" enable-background="new 0 0 100 100" xml:space="preserve">
<path fill="#ffffff" d="M85.536,9.722h-71.07c-4.54,0-8.222,3.681-8.222,8.221v47.682c0,4.541,3.682,8.221,8.222,8.221h4.494  c-1.124,3.527-3.732,9.699-9.509,16.432c0,0,19.487-3.695,26.539-16.432h49.546c4.54,0,8.221-3.68,8.221-8.221V17.943  C93.757,13.403,90.076,9.722,85.536,9.722z M57.192,49.875c0,2.1-1.223,3.801-2.729,3.801H25.812c-1.507,0-2.729-1.701-2.729-3.801  V34.969c0-2.1,1.223-3.803,2.729-3.803h28.652c1.506,0,2.729,1.703,2.729,3.803V49.875z M76.92,55.27l-15.009-5.458V35.031  l15.009-5.458V55.27z"/>
</svg>